# xmcd CD database file
#
# Track frame offsets:
#	150
#	17265
#	29390
#	46720
#	59877
#	72530
#	85650
#	100147
#	113882
#	126632
#	139125
#	152510
#	168002
#	180662
#
# Disc length: 2644 seconds
#
# Revision: 0
# Processed by: cddbd v1.5.1PL0 Copyright (c) Steve Scherf et al.
# Submitted via: CDex 1.51
#
DISCID=b70a520e
DTITLE=South Mountain - Where There's A Will
DYEAR=1995
DGENRE=Country
TTITLE0=Where There's A Will
TTITLE1=Truly, Madly
TTITLE2=Fear Of Flying
TTITLE3=Radioland
TTITLE4=Have A Heart
TTITLE5=Another Day like This
TTITLE6=Wrong Time "For The Right Kind Of Love"
TTITLE7=Who Would've Thought
TTITLE8=This Time, Time
TTITLE9=Ain't It A Miracle
TTITLE10=Gettin' By At Gettin' By
TTITLE11=Scared Money
TTITLE12=Midnight Delight
TTITLE13=Wishing It Was You
EXTD=YEAR: 1995
EXTT0=
EXTT1=
EXTT2=
EXTT3=
EXTT4=
EXTT5=
EXTT6=
EXTT7=
EXTT8=
EXTT9=
EXTT10=
EXTT11=
EXTT12=
EXTT13=
PLAYORDER=
